<?xml version="1.0" encoding="utf-8"?>
<!-- Generator: Adobe Illustrator 24.2.1, SVG Export Plug-In . SVG Version: 6.00 Build 0)  -->
<svg version="1.1" id="Layer_1" xmlns="http://www.w3.org/2000/svg" xmlns:xlink="http://www.w3.org/1999/xlink" x="0px" y="0px"
	 viewBox="0 0 270 46.4" style="enable-background:new 0 0 270 46.4;" xml:space="preserve">
<style type="text/css">
	.st0{fill:#FFFFFF;}
	.st1{fill:#EBEBEC;}
</style>
<g>
	<g>
		<path class="st0" d="M24,19c0-2.1,0-3.8-0.2-5.6H26l0.1,4.1h0.1c1.5-2.7,3.8-4.7,7.5-4.7c3.2,0,5.7,2.1,6.7,5.1h0.1
			c0.6-1.4,1.5-2.4,2.4-3.2c1.5-1.3,3.1-2,5.6-2c2.3,0,7.6,1.3,7.6,10v13.7h-2.3V23.2c0-5.3-2-8.3-6.1-8.3c-2.9,0-5.2,2.1-6.1,4.6
			c-0.2,0.7-0.4,1.5-0.4,2.3v14.9H39V22.1c0-4.2-2-7.2-5.8-7.2c-3.1,0-5.6,2.5-6.5,5.3c-0.2,0.6-0.3,1.5-0.3,2.2v14.3H24V19z"/>
		<path class="st0" d="M66.6,6.8c0,1.1-0.7,2-2,2c-1.1,0-1.8-0.9-1.8-2s0.8-2,1.9-2C65.8,4.8,66.6,5.7,66.6,6.8z M63.6,36.7V13.5
			h2.3v23.2H63.6z"/>
		<path class="st0" d="M76,24.6L76,24.6c0.7-0.7,1.6-1.8,2.3-2.6l8.2-8.6h2.8L79.9,23l10.7,13.6h-2.8l-9.5-12.2L76,27v9.7h-2.3V2.3
			H76V24.6z"/>
		<path class="st0" d="M95.1,24.8c0,7.4,4,10.3,8.8,10.3c3.4,0,5.2-0.7,6.5-1.3l0.6,1.8c-0.9,0.5-3.3,1.5-7.3,1.5
			c-6.7,0-10.8-4.9-10.8-11.7c0-7.7,4.5-12.6,10.4-12.6c7.6,0,9,7.1,9,10.5c0,0.6,0,1-0.1,1.4L95.1,24.8L95.1,24.8z M109.9,23
			c0-3.3-1.3-8.1-6.9-8.1c-5.2,0-7.3,4.6-7.8,8.1H109.9z"/>
		<path class="st0" d="M132,8.3v5.2h6.7v1.9H132v15.1c0,3,0.9,4.8,3.4,4.8c1.2,0,2.1-0.1,2.7-0.3l0.3,1.8c-0.8,0.3-1.9,0.6-3.3,0.6
			c-1.7,0-3.1-0.5-4-1.7c-1.1-1.2-1.5-3.2-1.5-5.6V15.4h-4v-1.9h4V9.2L132,8.3z"/>
		<path class="st0" d="M143.7,20.4c0-2.3,0-4.7-0.2-6.9h2.1l0.1,4.7h0.1c1-2.9,3.5-5.3,6.6-5.3c0.3,0,0.7,0,1,0.1v2.2
			c-0.3-0.1-0.7-0.1-1.1-0.1c-3.2,0-5.5,2.8-6.1,6.5c-0.1,0.7-0.2,1.5-0.2,2.2v12.8h-2.3L143.7,20.4L143.7,20.4z"/>
		<path class="st0" d="M177.4,24.8c0,8.6-6,12.4-11.1,12.4c-6,0-10.6-4.7-10.6-11.9c0-7.9,5.3-12.3,11-12.3
			C173,12.9,177.4,17.7,177.4,24.8z M157.9,25.1c0,5.9,3.8,10.1,8.4,10.1c4.9,0,8.6-4.4,8.6-10.3c0-4.3-2.4-10.1-8.5-10.1
			C160.6,14.9,157.9,20.1,157.9,25.1z"/>
		<path class="st0" d="M183.2,20.8c0-2.9,0-5.2-0.2-7.4h2.2l0.1,4.4h0.1c1.7-3.1,4.6-5,8.5-5c6,0,10,5,10,11.8
			c0,8.2-5,12.5-10.5,12.5c-3.4,0-6.3-1.5-7.9-4.3h-0.1v13.4h-2.3L183.2,20.8L183.2,20.8z M185.6,27.6c0,0.6,0,1.3,0.2,1.9
			c1,3.6,4.1,6,7.6,6c5.4,0,8.3-4.3,8.3-10.5c0-5.3-2.9-9.9-8.1-9.9c-3.4,0-6.7,2.3-7.7,6.2c-0.1,0.6-0.3,1.4-0.3,2L185.6,27.6
			L185.6,27.6z"/>
		<path class="st0" d="M210.3,24.8c0,7.4,4,10.3,8.8,10.3c3.4,0,5.2-0.7,6.5-1.3l0.6,1.8c-0.9,0.5-3.3,1.5-7.3,1.5
			c-6.7,0-10.8-4.9-10.8-11.7c0-7.7,4.5-12.6,10.4-12.6c7.6,0,9,7.1,9,10.5c0,0.6,0,1-0.1,1.4L210.3,24.8L210.3,24.8z M225.2,23
			c0-3.3-1.3-8.1-6.9-8.1c-5.2,0-7.3,4.6-7.8,8.1H225.2z"/>
		<path class="st0" d="M248.3,36.7h-2.1l-0.3-3.4h-0.1c-1.2,1.8-3.8,3.9-7.4,3.9c-4.7,0-6.8-3.3-6.8-6.4c0-5.4,4.7-8.6,14.2-8.5
			v-0.6c0-2.3-0.4-6.8-6-6.8c-2,0-4.2,0.5-5.9,1.8l-0.7-1.7c2.1-1.4,4.8-2,6.8-2c6.7,0,8,5.1,8,9.1C248.1,22.1,248,34.9,248.3,36.7z
			 M245.7,24.2c-5.1-0.1-11.8,0.6-11.8,6.2c0,3.4,2.2,4.9,4.7,4.9c3.9,0,6.1-2.4,6.8-4.7c0.2-0.5,0.2-1,0.2-1.4L245.7,24.2
			L245.7,24.2z"/>
	</g>
	<polygon class="st1" points="269.9,22.2 267.7,25.7 252,0.2 256.3,0.2 	"/>
	<polygon class="st0" points="269.9,22.2 267.8,18.8 252,44.3 256.3,44.3 	"/>
	<polygon class="st1" points="0.2,22.2 4.5,22.2 18.1,0.2 13.8,0.2 	"/>
	<polygon class="st0" points="0.2,22.2 2.4,18.7 18.1,44.3 13.8,44.3 	"/>
</g>
</svg>
